<svg width="48" height="48" viewBox="0 0 48 48" fill="none" xmlns="http://www.w3.org/2000/svg">
<path fill-rule="evenodd" clip-rule="evenodd" d="M24 48C37.2548 48 48 37.2548 48 24C48 10.7452 37.2548 0 24 0C10.7452 0 0 10.7452 0 24C0 37.2548 10.7452 48 24 48ZM24.7959 12.3611L24.7959 12.3612L24.796 12.3613L24.796 12.3613L24.796 12.3613L24.796 12.3614L24.7961 12.3614C24.8586 12.4784 24.9209 12.5951 24.991 12.7068C25.487 13.5032 25.9746 14.2957 26.4506 15.105L24.8365 15.9945C23.874 16.5248 23.8518 17.1659 24.7868 17.4212L27.4163 18.1365L28.306 18.3788C29.1531 18.6095 30.1385 18.8779 30.8148 19.0616L33.4442 19.7769C34.3782 20.0311 35.3185 19.5127 35.5343 18.6242L36.1404 16.1261C36.354 15.2376 36.7052 13.7852 36.921 12.8967L37.527 10.3986C37.7428 9.51109 37.1304 9.21824 36.1679 9.74855L34.5178 10.6578C33.9128 9.69314 33.3088 8.73443 33.0751 8.38419C32.5441 7.58774 31.5224 6.9773 29.5169 6.98818L28.4052 6.99407C26.5529 7.00387 23.5891 7.01955 21.5703 7.03073C21.9818 7.70746 22.3932 8.3832 22.8057 9.05994L24.6271 12.0518L24.6239 12.0528C24.685 12.1536 24.7405 12.2575 24.7959 12.3611ZM18.0428 18.1181L13.1625 15.2417V15.2407C12.4379 14.8143 12.21 13.8793 12.656 13.1653C12.656 13.1653 14.6458 9.97985 15.4308 8.78274C16.4514 7.22668 17.9036 7.00564 19.1745 6.99782C19.5011 6.99684 20.137 6.99294 20.9323 6.98807L20.9373 6.98804L23.8455 12.1169C23.8805 12.1795 23.825 12.2499 23.7559 12.2342C23.5572 12.1892 23.3449 12.3115 23.1598 12.6206C22.9047 13.0411 20.1524 17.5841 20.1524 17.5841C19.717 18.3049 18.7674 18.5445 18.0428 18.1181ZM34.7229 30.4628C34.4714 30.4556 34.2199 30.4494 33.9704 30.4452C33.0301 30.4297 32.0958 30.4079 31.1544 30.3686L31.1746 28.5352C31.1878 27.442 30.6373 27.0766 29.9535 27.7205L28.0294 29.5352C27.3456 30.1802 26.2264 31.2351 25.5416 31.88L23.6165 33.6948C22.9327 34.3398 22.9206 35.4081 23.5902 36.0686L25.4729 37.9289L27.9081 40.3306L29.7909 42.1909C30.4595 42.8525 31.0181 42.4984 31.0302 41.4052L31.0514 39.5304C32.1927 39.5459 33.329 39.5594 33.7512 39.5532C34.7098 39.5397 35.7471 39.0149 36.7288 37.3295C37.1431 36.6191 37.9468 35.2394 38.7884 33.7945C39.4284 32.6958 40.0903 31.5594 40.6195 30.6512L38.2358 30.587C37.6376 30.5706 37.0371 30.5469 36.4372 30.5232L36.4368 30.5232C35.8639 30.5006 35.2917 30.478 34.7229 30.4618V30.4628ZM40.1738 19.1651C40.1738 19.1651 41.8843 22.5862 42.5072 23.9042H42.5062C43.317 25.6177 42.7455 27.0065 42.084 28.1223C41.9849 28.2885 41.832 28.5468 41.6401 28.8708L41.639 28.8728L41.6382 28.8741C41.4994 29.1085 41.3403 29.3773 41.1665 29.6704L35.2025 29.512C35.1303 29.51 35.0977 29.4234 35.1481 29.3716C35.2924 29.2211 35.2974 28.9711 35.1273 28.6463C34.8979 28.201 32.4142 23.3971 32.4142 23.3971C32.0197 22.637 32.3114 21.6786 33.0609 21.2692L38.1123 18.5136C38.8627 18.1051 39.7902 18.398 40.1738 19.1651ZM13.1196 29.8927C13.1791 29.788 13.2445 29.6866 13.3097 29.5854L13.3097 29.5853C13.3794 29.4771 13.449 29.3692 13.5111 29.2578C13.9635 28.4441 14.417 27.6405 14.8905 26.8368L16.4451 27.6874C17.3711 28.1945 17.9407 27.8821 17.7095 26.9925L17.0588 24.4907L16.6388 22.8739L16.2189 21.2571L15.5692 18.7542C15.338 17.8657 14.432 17.3695 13.5561 17.6531L11.0905 18.4507C10.538 18.6302 9.76407 18.8812 9.04779 19.1134L7.90515 19.484L5.43955 20.2817C4.56363 20.5642 4.60468 21.2122 5.53165 21.7193L7.12133 22.5889C6.57575 23.5772 6.03418 24.5616 5.84198 24.932C5.40652 25.7746 5.36948 26.9167 6.34951 28.539C7.07628 29.743 9.00831 32.9406 10.2316 34.9633C10.4264 34.6216 10.621 34.28 10.8156 33.9384C11.0099 33.5971 11.2042 33.2559 11.3988 32.9147L12.2584 31.4056L13.1196 29.8937V29.8927ZM14.7189 30.8288C15.226 30.8351 20.7084 30.8918 20.7084 30.8918V30.8907C21.5776 30.8991 22.2935 31.6473 22.2986 32.5519L22.3328 38.6489C22.3379 39.5534 21.631 40.2765 20.7618 40.2555C20.7618 40.2555 16.8858 40.16 15.4096 40.0897C13.4907 39.9984 12.5257 38.7748 11.8461 37.6026C11.812 37.5438 11.7715 37.4739 11.7253 37.3941C11.5349 37.0654 11.2467 36.568 10.9043 35.9761L13.9102 30.4699C13.9465 30.4038 14.0392 30.4164 14.0614 30.4888C14.1259 30.6976 14.3478 30.8267 14.7189 30.8288Z" fill="white"/>
</svg>
