<svg width="310" height="310" viewBox="0 0 310 310" fill="none" xmlns="http://www.w3.org/2000/svg">
<rect width="310" height="310" rx="60" fill="white"/>
<path d="M227.054 56.8574C227.558 56.8575 228.044 57.0483 228.414 57.3916L247.802 75.3916C248.654 76.1829 248.654 77.532 247.802 78.3232L228.414 96.3232C228.044 96.6665 227.558 96.8574 227.054 96.8574H178.523C177.419 96.8574 176.523 95.962 176.523 94.8574V81.1436H218.811C220.111 83.687 222.756 85.4287 225.809 85.4287C230.148 85.4286 233.665 81.9114 233.665 77.5723C233.665 73.233 230.148 69.715 225.809 69.7148C222.213 69.7148 219.183 72.1315 218.25 75.4287H176.523V58.8574C176.523 57.7529 177.419 56.8574 178.523 56.8574H227.054Z" fill="#453C38"/>
<path d="M177.955 110.324C177.955 108.784 179.622 107.823 180.955 108.592L216.424 129.07C216.898 129.344 217.24 129.801 217.368 130.333L223.183 154.475C223.432 155.51 222.827 156.56 221.806 156.862L198.416 163.771C197.657 163.995 196.836 163.751 196.324 163.147L178.43 142.061C178.123 141.7 177.955 141.241 177.955 140.767V131.2L196.492 143.239C196.197 146.081 197.467 148.982 200.027 150.645C203.667 153.008 208.532 151.974 210.896 148.335C213.259 144.696 212.225 139.83 208.586 137.466C205.57 135.508 201.712 135.884 199.134 138.141L177.955 124.386V110.324Z" fill="#453C38"/>
<path d="M114.525 81.1426C115.629 81.1426 116.525 82.038 116.525 83.1426V98.2861H87.0933C85.7925 95.7427 83.1481 94.001 80.0952 94.001C75.7561 94.0011 72.2389 97.5183 72.2388 101.857C72.2388 106.197 75.756 109.715 80.0952 109.715C83.6913 109.715 86.7207 107.298 87.6538 104.001H116.525V119.143C116.525 120.247 115.629 121.143 114.525 121.143H77.2066C76.6178 121.143 76.0582 120.883 75.6782 120.434L60.4722 102.434C59.8426 101.688 59.8426 100.597 60.4722 99.8516L75.6782 81.8516C76.0582 81.4018 76.6178 81.1426 77.2066 81.1426H114.525Z" fill="#453C38"/>
<path d="M126.523 48C126.523 45.7909 128.314 44 130.523 44L162.523 44C164.733 44 166.523 45.7909 166.523 48L166.523 180C166.523 182.209 164.733 184 162.523 184L149.383 184L149.383 70.6553C152.711 69.4782 155.096 66.3048 155.096 62.5732C155.096 57.8394 151.258 54.002 146.524 54.002C141.791 54.0021 137.953 57.8395 137.953 62.5732C137.953 66.3052 140.339 69.4785 143.668 70.6553L143.668 184L130.523 184C128.314 184 126.523 182.209 126.523 180L126.523 48Z" fill="#453C38"/>
<path d="M249.448 252.232L239.686 218.45H247.585L253.429 240.607L259.852 219.414H266.21L272.632 240.993L278.669 218.45H286.312L276.614 252.232H270.32L262.999 228.405L255.741 252.232H249.448Z" fill="#453C38"/>
<path d="M220.418 252.939C215.237 252.939 211.191 251.397 208.28 248.315C205.411 245.232 203.977 240.907 203.977 235.341C203.977 229.775 205.411 225.451 208.28 222.368C211.191 219.286 215.237 217.744 220.418 217.744C225.641 217.744 229.687 219.286 232.556 222.368C235.425 225.451 236.859 229.775 236.859 235.341C236.859 240.907 235.425 245.232 232.556 248.315C229.687 251.397 225.641 252.939 220.418 252.939ZM220.418 246.837C226.112 246.837 228.959 243.005 228.959 235.341C228.959 227.677 226.112 223.845 220.418 223.845C214.723 223.845 211.876 227.677 211.876 235.341C211.876 243.005 214.723 246.837 220.418 246.837Z" fill="#453C38"/>
<path d="M189.093 252.232V209.716L185.689 207.211V204H196.929V252.232H189.093Z" fill="#453C38"/>
<path d="M153.102 252.231V205.541H182.131V212.349H161.129V226.349H179.883V233.157H161.129V252.231H153.102Z" fill="#453C38"/>
<path d="M125.936 251.911L114.119 218.45H122.211L131.781 246.965L139.68 218.45H147.451L137.882 250.498C136.854 253.88 135.655 256.642 134.285 258.783C132.915 260.923 131.224 262.572 129.212 263.728C127.199 264.927 124.673 265.826 121.633 266.425L119.963 260.003C122.875 259.275 125.059 258.333 126.514 257.177C127.97 256.021 129.105 254.265 129.918 251.911H125.936Z" fill="#453C38"/>
<path d="M105.171 252.232L104.079 247.223C102.837 249.064 101.274 250.498 99.3904 251.526C97.5065 252.51 95.43 253.003 93.1608 253.003C89.6927 253.003 86.9311 252.039 84.8759 250.113C82.8636 248.186 81.8574 245.574 81.8574 242.278C81.8574 238.767 83.1419 236.005 85.7108 233.993C88.2798 231.98 91.7906 230.974 96.2435 230.974H102.602V229.369C102.602 227.228 102.152 225.772 101.253 225.001C100.354 224.231 98.7696 223.845 96.5004 223.845C93.1179 223.845 89.2645 224.637 84.9401 226.222V220.12C86.6528 219.393 88.6009 218.815 90.7845 218.386C92.9681 217.958 95.1089 217.744 97.2068 217.744C105.984 217.744 110.373 221.598 110.373 229.304V252.232H105.171ZM94.7663 247.094C96.3505 247.094 97.8491 246.688 99.262 245.874C100.675 245.018 101.831 243.84 102.73 242.342V235.984H97.1426C91.9619 235.984 89.3716 237.867 89.3716 241.635C89.3716 243.348 89.8425 244.697 90.7845 245.681C91.7264 246.623 93.0537 247.094 94.7663 247.094Z" fill="#453C38"/>
<path d="M33.7895 252.231L23 205.541H31.0922L38.799 239.708L47.9829 208.11H54.8548L64.3599 239.901L72.0667 205.541H79.902L69.1125 252.231H61.4056L51.3225 218.899L41.4964 252.231H33.7895Z" fill="#453C38"/>
</svg>
