<svg width="625" height="152" viewBox="0 0 625 152" fill="none" xmlns="http://www.w3.org/2000/svg">
<path d="M162.209 24.5713C162.714 24.5713 163.2 24.762 163.57 25.1055L180.804 41.1055C181.656 41.8967 181.656 43.2458 180.804 44.0371L163.57 60.0371C163.2 60.3806 162.714 60.5713 162.209 60.5713H118.811C117.706 60.5713 116.811 59.6758 116.811 58.5713V46.4287H154.871C156.042 48.718 158.421 50.2861 161.169 50.2861C165.074 50.2861 168.24 47.1203 168.24 43.2148C168.24 39.3095 165.074 36.1436 161.169 36.1436C157.932 36.1436 155.206 38.3185 154.366 41.2861H116.811V26.5713C116.811 25.4668 117.706 24.5713 118.811 24.5713H162.209Z" fill="#FFBF00"/>
<path d="M118.098 73.0365C118.098 71.4969 119.764 70.5343 121.098 71.3041L152.646 89.518C153.12 89.792 153.462 90.2489 153.59 90.7816L158.759 112.242C159.008 113.277 158.402 114.326 157.381 114.627L136.638 120.755C135.879 120.98 135.058 120.735 134.546 120.131L118.572 101.309C118.266 100.948 118.098 100.489 118.098 100.015V91.4779L134.78 102.313C134.515 104.871 135.657 107.482 137.962 108.979C141.237 111.106 145.617 110.175 147.744 106.9C149.871 103.624 148.94 99.2446 145.665 97.1176C142.951 95.3551 139.48 95.694 137.159 97.725L118.098 85.3461V73.0365Z" fill="#FFBF00"/>
<path d="M60.8111 46.4287C61.9154 46.429 62.8111 47.3243 62.8111 48.4287V61.8584H36.3247C35.1542 59.5689 32.7738 58.001 30.0259 58.001C26.1206 58.0012 22.9546 61.1669 22.9546 65.0723C22.9547 68.9775 26.1207 72.1434 30.0259 72.1436C33.2625 72.1436 35.9899 69.9687 36.8296 67.001H62.8111V80.4287C62.8111 81.5331 61.9154 82.4285 60.8111 82.4287H27.5161C26.9275 82.4286 26.3687 82.1693 25.9888 81.7197L12.4722 65.7197C11.8426 64.9745 11.8426 63.883 12.4722 63.1377L25.9888 47.1377C26.3687 46.6881 26.9275 46.4288 27.5161 46.4287H60.8111Z" fill="#FFBF00"/>
<path d="M71.8105 17C71.8105 14.7909 73.6014 13 75.8105 13L103.811 13C106.02 13 107.811 14.7909 107.811 17L107.811 135C107.811 137.209 106.02 139 103.811 139L92.3828 139L92.3828 36.9893C95.3789 35.9303 97.5262 33.0745 97.5264 29.7158C97.5264 25.4553 94.072 22.001 89.8115 22.001C85.5512 22.0012 82.0977 25.4555 82.0977 29.7158C82.0978 33.0742 84.2445 35.9301 87.2402 36.9893L87.2402 139L75.8105 139C73.6014 139 71.8105 137.209 71.8105 135L71.8105 17Z" fill="#FFBF00"/>
<path d="M557.158 110.05L542.371 58.8789H554.337L563.19 92.4415L572.918 60.3381H582.549L592.277 93.0252L601.422 58.8789H612.998L598.309 110.05H588.775L577.685 73.9577L566.692 110.05H557.158Z" fill="white"/>
<path d="M513.186 111.12C505.338 111.12 499.209 108.785 494.799 104.115C490.454 99.4456 488.281 92.8953 488.281 84.4641C488.281 76.0329 490.454 69.4825 494.799 64.813C499.209 60.1434 505.338 57.8086 513.186 57.8086C521.098 57.8086 527.227 60.1434 531.572 64.813C535.917 69.4825 538.09 76.0329 538.09 84.4641C538.09 92.8953 535.917 99.4456 531.572 104.115C527.227 108.785 521.098 111.12 513.186 111.12ZM513.186 101.878C521.811 101.878 526.124 96.0732 526.124 84.4641C526.124 72.855 521.811 67.0505 513.186 67.0505C504.56 67.0505 500.247 72.855 500.247 84.4641C500.247 96.0732 504.56 101.878 513.186 101.878Z" fill="white"/>
<path d="M465.738 110.05V45.6484L460.582 41.8544V36.9902H477.607V110.05H465.738Z" fill="white"/>
<path d="M411.219 110.05V39.3252H455.191V49.6372H423.379V70.8448H451.786V81.1568H423.379V110.05H411.219Z" fill="white"/>
<path d="M370.072 109.563L352.172 58.8789H364.43L378.925 102.072L390.89 58.8789H402.662L388.167 107.423C386.61 112.547 384.794 116.73 382.719 119.973C380.643 123.215 378.082 125.712 375.033 127.463C371.985 129.279 368.159 130.641 363.554 131.549L361.025 121.821C365.435 120.718 368.742 119.292 370.947 117.54C373.153 115.789 374.871 113.13 376.103 109.563H370.072Z" fill="white"/>
<path d="M338.614 110.049L336.961 102.461C335.08 105.25 332.713 107.423 329.859 108.979C327.005 110.471 323.86 111.217 320.423 111.217C315.169 111.217 310.986 109.758 307.873 106.839C304.825 103.921 303.301 99.9645 303.301 94.9706C303.301 89.6525 305.246 85.4693 309.138 82.4211C313.029 79.3729 318.347 77.8489 325.092 77.8489H334.723V75.4168C334.723 72.174 334.042 69.9689 332.68 68.8015C331.318 67.6342 328.919 67.0505 325.481 67.0505C320.358 67.0505 314.521 68.2503 307.97 70.6499V61.4081C310.565 60.3055 313.515 59.43 316.823 58.7814C320.131 58.1329 323.373 57.8086 326.551 57.8086C339.847 57.8086 346.494 63.6456 346.494 75.3195V110.049H338.614ZM322.855 102.267C325.254 102.267 327.524 101.651 329.664 100.418C331.805 99.1214 333.556 97.3378 334.918 95.0679V85.4369H326.454C318.607 85.4369 314.683 88.2905 314.683 93.9978C314.683 96.592 315.396 98.6349 316.823 100.127C318.25 101.553 320.26 102.267 322.855 102.267Z" fill="white"/>
<path d="M230.49 110.05L214.146 39.3252H226.404L238.078 91.0797L251.989 43.2165H262.399L276.797 91.3715L288.471 39.3252H300.339L283.996 110.05H272.322L257.048 59.56L242.164 110.05H230.49Z" fill="white"/>
</svg>
