<svg width="48" height="48" viewBox="0 0 48 48" fill="none" xmlns="http://www.w3.org/2000/svg">
<path fill-rule="evenodd" clip-rule="evenodd" d="M48 24C48 37.2548 37.2548 48 24 48C10.7452 48 0 37.2548 0 24C0 10.7452 10.7452 0 24 0C37.2548 0 48 10.7452 48 24ZM38.3597 29.1256C40.3504 29.1256 41.9682 27.5281 42 25.5448H41.9986C42.0311 23.5297 40.3762 21.8456 38.3604 21.8449C37.3979 21.8449 36.5227 22.2172 35.8715 22.8271C35.552 23.1256 35.0295 22.8995 35.0295 22.4615V15.4726C35.0295 14.6427 34.3567 13.9698 33.5268 13.9698H26.538C26.1001 13.9698 25.8733 13.4473 26.1725 13.1278C26.7824 12.4766 27.1553 11.6014 27.1547 10.6388C27.154 8.62368 25.4699 6.96798 23.4548 7.00047C21.4723 7.03296 19.8741 8.65008 19.8741 10.6408C19.8741 11.602 20.2464 12.4759 20.8549 13.1264C21.1541 13.4466 20.9301 13.9698 20.4915 13.9698H13.5027C12.6728 13.9698 12 14.6427 12 15.4726V22.4615C12 22.8995 12.5226 23.1263 12.842 22.8271C13.4932 22.2172 14.3684 21.8449 15.3309 21.8449C17.346 21.8456 19.0016 23.5297 18.9692 25.5448C18.9367 27.5275 17.3196 29.1256 15.3289 29.1256C14.3677 29.1256 13.4939 28.7533 12.8434 28.1448C12.5232 27.8456 12 28.0697 12 28.5083V35.4973C12 36.3272 12.6728 37 13.5027 37H20.4915C20.9294 37 21.1562 36.4774 20.857 36.1579C20.2478 35.5068 19.8748 34.6315 19.8748 33.6696C19.8755 31.6545 21.5603 29.9988 23.5753 30.0313C25.5586 30.0631 27.156 31.6809 27.156 33.6717C27.156 34.6322 26.7844 35.5061 26.1759 36.1566C25.876 36.4767 26.1008 37 26.5394 37H33.5282C34.358 37 35.0308 36.3272 35.0308 35.4973V28.5083C35.0308 28.0697 35.5541 27.8456 35.8742 28.1448C36.5247 28.7533 37.3986 29.1256 38.3597 29.1256Z" fill="white"/>
</svg>
