<svg width="48" height="48" viewBox="0 0 48 48" fill="none" xmlns="http://www.w3.org/2000/svg">
<path fill-rule="evenodd" clip-rule="evenodd" d="M48 24C48 37.2548 37.2548 48 24 48C10.7452 48 0 37.2548 0 24C0 10.7452 10.7452 0 24 0C37.2548 0 48 10.7452 48 24ZM11.04 13.1039C11.04 12.4942 11.5558 11.9999 12.192 11.9999H21.408C22.0442 11.9999 22.56 12.4942 22.56 13.1039V21.9359C22.56 22.5457 22.0442 23.0399 21.408 23.0399H12.192C11.5558 23.0399 11.04 22.5457 11.04 21.9359V13.1039ZM12.192 26.8799C11.5558 26.8799 11.04 27.3742 11.04 27.9839V36.8159C11.04 37.4257 11.5558 37.9199 12.192 37.9199H21.408C22.0442 37.9199 22.56 37.4257 22.56 36.8159V27.9839C22.56 27.3742 22.0442 26.8799 21.408 26.8799H12.192ZM25.92 27.9839C25.92 27.3742 26.4358 26.8799 27.072 26.8799H36.288C36.9242 26.8799 37.44 27.3742 37.44 27.9839V36.8159C37.44 37.4257 36.9242 37.9199 36.288 37.9199H27.072C26.4358 37.9199 25.92 37.4257 25.92 36.8159V27.9839ZM24.5741 16.3539C24.1302 16.7979 24.1302 17.5176 24.5741 17.9615L31.0043 24.3917C31.4482 24.8356 32.1679 24.8356 32.6118 24.3917L39.042 17.9615C39.4859 17.5176 39.4859 16.7979 39.042 16.3539L32.6118 9.92377C32.1679 9.47986 31.4482 9.47986 31.0043 9.92377L24.5741 16.3539Z" fill="white"/>
</svg>
