<svg width="48" height="48" viewBox="0 0 48 48" fill="none" xmlns="http://www.w3.org/2000/svg">
<path fill-rule="evenodd" clip-rule="evenodd" d="M24 48C37.2548 48 48 37.2548 48 24C48 10.7452 37.2548 0 24 0C10.7452 0 0 10.7452 0 24C0 37.2548 10.7452 48 24 48ZM36.5714 16.4286C39.1747 16.4286 41.2857 14.3175 41.2857 11.7143C41.2857 9.11106 39.1747 7 36.5714 7C33.9682 7 31.8571 9.11106 31.8571 11.7143C31.8571 12.7112 32.1668 13.6353 32.6942 14.3971L26.7612 20.3301C26.2388 19.9752 25.6696 19.6831 25.0669 19.4637L26.1133 15.5623C26.5904 15.527 27.0424 15.3931 27.4459 15.1813C27.8142 14.988 28.144 14.7302 28.4185 14.4222C28.9576 13.8161 29.2857 13.0176 29.2857 12.1429C29.2857 10.2494 27.7506 8.71429 25.8571 8.71429C23.9637 8.71429 22.4286 10.2494 22.4286 12.1429C22.4286 13.3976 23.1032 14.4949 24.1093 15.0926L23.0547 19.0251C22.8487 19.0084 22.6395 19 22.4286 19C21.2567 19 20.1451 19.2612 19.1507 19.7291L15.5245 15.348C16.0938 14.5687 16.4286 13.6093 16.4286 12.5714C16.4286 9.9682 14.3175 7.85714 11.7143 7.85714C9.11106 7.85714 7 9.9682 7 12.5714C7 15.1747 9.11106 17.2857 11.7143 17.2857C12.5346 17.2857 13.3063 17.0756 13.9777 16.7073L17.4113 20.8541C17.2288 21.0106 17.053 21.1755 16.8856 21.3487C16.7182 21.5221 16.5575 21.7037 16.4068 21.892C15.8995 22.524 15.491 23.2372 15.2015 24.009C14.8867 24.851 14.7143 25.7625 14.7143 26.7143C14.7143 27.5798 14.8566 28.4119 15.1195 29.1886L12.9849 30.7824C12.3756 30.3781 11.644 30.1429 10.8571 30.1429C8.72766 30.1429 7 31.8697 7 34C7 36.1303 8.72766 37.8571 10.8571 37.8571C12.9866 37.8571 14.7143 36.1303 14.7143 34C14.7143 33.7422 14.6892 33.4903 14.6407 33.2467C14.5787 32.9277 14.4766 32.6231 14.3393 32.3384L16.0536 31.0586C17.4431 33.0926 19.7785 34.4286 22.4286 34.4286C23.7126 34.4286 24.9213 34.1147 25.9861 33.5605L27.774 35.6298C27.1177 36.3211 26.7143 37.2561 26.7143 38.2857C26.7143 40.4161 28.4419 42.1429 30.5714 42.1429C32.7009 42.1429 34.4286 40.4161 34.4286 38.2857C34.4286 36.1554 32.7009 34.4286 30.5714 34.4286C30.2249 34.4286 29.8884 34.4746 29.5687 34.56L27.6752 32.3686C28.7082 31.4093 29.4782 30.1705 29.865 28.7718H31.9207C32.2891 31.0084 34.231 32.7143 36.5714 32.7143C39.1747 32.7143 41.2857 30.6032 41.2857 28C41.2857 25.3968 39.1747 23.2857 36.5714 23.2857C34.4135 23.2857 32.5938 24.7355 32.0346 26.7143H30.1429C30.1429 24.8024 29.4481 23.053 28.2963 21.7053L34.2076 15.7933C34.9023 16.1976 35.7092 16.4286 36.5714 16.4286Z" fill="white"/>
</svg>
