<svg width="48" height="48" viewBox="0 0 48 48" fill="none" xmlns="http://www.w3.org/2000/svg">
<path fill-rule="evenodd" clip-rule="evenodd" d="M24 48C37.2539 48 48 37.2549 48 24C48 10.7451 37.2539 0 24 0C10.7461 0 0 10.7451 0 24C0 37.2549 10.7461 48 24 48ZM13.7617 34.229C17.0684 35.4077 20.4785 35.9873 23.9629 36C27.4746 35.9912 30.8711 35.4207 34.168 34.26C35.084 33.9377 35.3652 33.533 35.3672 32.5361C35.3691 31.5681 35.3457 30.5991 35.3711 29.6309C35.4238 27.6907 34.6172 26.1831 33.1309 25.0137C31.5996 23.8086 29.8164 23.1606 27.959 22.696C27.8066 22.6584 27.6035 22.7224 27.457 22.8005C25.1465 24.0273 22.8457 24.033 20.5391 22.791C20.3945 22.7136 20.1914 22.6633 20.0371 22.7C18.3398 23.1118 16.7109 23.7065 15.2637 24.7217C13.5371 25.9316 12.5488 27.5374 12.6309 29.73C12.6543 30.3594 12.6484 30.9895 12.6426 31.6196C12.6387 31.9583 12.6367 32.2966 12.6387 32.635C12.6445 33.5129 12.9531 33.9399 13.7617 34.229ZM24.0312 11.0002C27.1309 11.0315 29.6074 13.5791 29.5781 16.71C29.5508 19.783 27.0293 22.2778 23.9727 22.2585C20.873 22.2395 18.3984 19.699 18.4238 16.5601C18.4492 13.5 21 10.97 24.0312 11.0002ZM13.7383 23.3967C11.7188 23.3889 10.0566 21.6929 10.0664 19.6497C10.0742 17.5967 11.7324 15.9407 13.7715 15.9495C15.8145 15.9583 17.4434 17.616 17.4395 19.6831C17.4336 21.7288 15.7637 23.4055 13.7383 23.3967ZM34.2559 23.3967C32.2344 23.4009 30.5703 21.72 30.5684 19.6704C30.5684 17.6079 32.207 15.9512 34.248 15.9495C36.2891 15.9478 37.9395 17.6086 37.9434 19.6624C37.9434 21.7056 36.2793 23.3936 34.2559 23.3967ZM11.1973 31.4214V32.2639V32.8474C10.3379 32.6831 9.54297 32.5601 8.76367 32.3718C8.27734 32.2546 7.79883 32.1042 7.32031 31.9536C7.09766 31.8838 6.87695 31.814 6.6543 31.7476C6.18359 31.6072 5.98828 31.2949 6.00391 30.7993C6.02539 30.1497 6.03125 29.4976 6.00391 28.8489C5.94141 27.3779 6.59375 26.2957 7.75 25.4768C8.20508 25.1545 8.6875 24.897 9.18945 24.6848C9.7168 24.4622 10.2656 24.2893 10.8242 24.1445C10.873 24.1318 10.9277 24.1252 10.9844 24.1248C11.0645 24.124 11.1445 24.1365 11.2109 24.1631C11.752 24.3745 12.2852 24.6067 12.8457 24.8423L12.8242 24.8784C12.8027 24.916 12.7734 24.967 12.7383 25.0122C11.7285 26.2661 11.207 27.698 11.1992 29.3149C11.1953 30.0171 11.1953 30.7192 11.1973 31.4214ZM41.5566 31.6621C40.0645 32.22 38.5312 32.6174 36.9453 32.7788C36.9277 32.78 36.9102 32.772 36.8789 32.7576L36.8066 32.7268C36.8066 32.4053 36.8105 32.0613 36.8066 31.718C36.7988 31.0669 36.8145 30.4133 36.8066 29.7617C36.8008 29.3401 36.7871 28.9194 36.75 28.5007C36.627 27.1128 36.0312 25.8958 35.1387 24.8542C35.7168 24.6091 36.2734 24.3682 36.8359 24.1414C36.9238 24.1055 37.043 24.1118 37.1387 24.1357C38.3672 24.4463 39.541 24.887 40.543 25.697C41.5117 26.4807 42.0332 27.4824 41.998 28.761C41.9785 29.4714 41.9902 30.1824 41.9961 30.8928C42 31.2432 41.8867 31.5386 41.5566 31.6621Z" fill="white"/>
</svg>
